REM DIRINDEX 1\6,1\2\7,1\2\8,1\2\9,1\3\10,1\3\11,1\4\12,1\4\13,1\4\14,1\5\15,1\5\16,1\5\17
REM DIRNAME cjc040,folder01,folder02,folder03,folder04,folder05,folder06,folder07,folder08,folder09,folder10,folder11,folder12,folder13,folder14,folder15,folder16
TITLE ""
FILE "P2Q_t2_0445-0462.mp3" MP3
  TRACK 01 AUDIO
    TITLE "7:cjc040_5164"
    INDEX 01 00:00:00
  TRACK 02 AUDIO
    TITLE "0:"
    INDEX 01 00:00:70
  TRACK 03 AUDIO
    TITLE "8:cjc040_5165"
    INDEX 01 00:01:46
  TRACK 04 AUDIO
    TITLE "0:"
    INDEX 01 00:02:53
  TRACK 05 AUDIO
    TITLE "9:cjc040_5166"
    INDEX 01 00:03:29
  TRACK 06 AUDIO
    TITLE "0:"
    INDEX 01 00:04:46
  TRACK 07 AUDIO
    TITLE "7:cjc040_5167"
    INDEX 01 00:06:30
  TRACK 08 AUDIO
    TITLE "0:"
    INDEX 01 00:07:31
  TRACK 09 AUDIO
    TITLE "8:cjc040_5168"
    INDEX 01 00:08:11
  TRACK 10 AUDIO
    TITLE "0:"
    INDEX 01 00:11:07
  TRACK 11 AUDIO
    TITLE "9:cjc040_5169"
    INDEX 01 00:11:60
  TRACK 12 AUDIO
    TITLE "0:"
    INDEX 01 00:12:67
  TRACK 13 AUDIO
    TITLE "7:cjc040_5170"
    INDEX 01 00:14:53
  TRACK 14 AUDIO
    TITLE "0:"
    INDEX 01 00:15:56
  TRACK 15 AUDIO
    TITLE "8:cjc040_5171"
    INDEX 01 00:16:38
  TRACK 16 AUDIO
    TITLE "0:"
    INDEX 01 00:19:28
  TRACK 17 AUDIO
    TITLE "9:cjc040_5172"
    INDEX 01 00:20:00
  TRACK 18 AUDIO
    TITLE "0:"
    INDEX 01 00:21:06
  TRACK 19 AUDIO
    TITLE "7:cjc040_5173"
    INDEX 01 00:22:70
  TRACK 20 AUDIO
    TITLE "0:"
    INDEX 01 00:24:08
  TRACK 21 AUDIO
    TITLE "8:cjc040_5174"
    INDEX 01 00:24:67
  TRACK 22 AUDIO
    TITLE "0:"
    INDEX 01 00:26:38
  TRACK 23 AUDIO
    TITLE "9:cjc040_5175"
    INDEX 01 00:27:20
  TRACK 24 AUDIO
    TITLE "0:"
    INDEX 01 00:28:35
  TRACK 25 AUDIO
    TITLE "7:cjc040_5176"
    INDEX 01 00:30:16
  TRACK 26 AUDIO
    TITLE "0:"
    INDEX 01 00:31:20
  TRACK 27 AUDIO
    TITLE "8:cjc040_5177"
    INDEX 01 00:32:00
  TRACK 28 AUDIO
    TITLE "0:"
    INDEX 01 00:33:05
  TRACK 29 AUDIO
    TITLE "9:cjc040_5178"
    INDEX 01 00:33:62
  TRACK 30 AUDIO
    TITLE "0:"
    INDEX 01 00:34:67
  TRACK 31 AUDIO
    TITLE "7:cjc040_5179"
    INDEX 01 00:36:52
  TRACK 32 AUDIO
    TITLE "0:"
    INDEX 01 00:37:54
  TRACK 33 AUDIO
    TITLE "8:cjc040_5180"
    INDEX 01 00:38:37
  TRACK 34 AUDIO
    TITLE "0:"
    INDEX 01 00:39:45
  TRACK 35 AUDIO
    TITLE "9:cjc040_5181"
    INDEX 01 00:40:28
  TRACK 36 AUDIO
    TITLE "0:"
    INDEX 01 00:41:34
  TRACK 37 AUDIO
    TITLE "7:cjc040_5182"
    INDEX 01 00:43:21
  TRACK 38 AUDIO
    TITLE "0:"
    INDEX 01 00:44:44
  TRACK 39 AUDIO
    TITLE "8:cjc040_5183"
    INDEX 01 00:45:24
  TRACK 40 AUDIO
    TITLE "0:"
    INDEX 01 00:47:19
  TRACK 41 AUDIO
    TITLE "9:cjc040_5184"
    INDEX 01 00:47:74
  TRACK 42 AUDIO
    TITLE "0:"
    INDEX 01 00:49:25
  TRACK 43 AUDIO
    TITLE "7:cjc040_5185"
    INDEX 01 00:51:09
  TRACK 44 AUDIO
    TITLE "0:"
    INDEX 01 00:52:36
  TRACK 45 AUDIO
    TITLE "8:cjc040_5186"
    INDEX 01 00:53:09
  TRACK 46 AUDIO
    TITLE "0:"
    INDEX 01 00:55:30
  TRACK 47 AUDIO
    TITLE "9:cjc040_5187"
    INDEX 01 00:56:14
  TRACK 48 AUDIO
    TITLE "0:"
    INDEX 01 00:57:45
  TRACK 49 AUDIO
    TITLE "7:cjc040_5188"
    INDEX 01 00:59:32
  TRACK 50 AUDIO
    TITLE "0:"
    INDEX 01 01:00:51
  TRACK 51 AUDIO
    TITLE "8:cjc040_5189"
    INDEX 01 01:01:34
  TRACK 52 AUDIO
    TITLE "0:"
    INDEX 01 01:04:39
  TRACK 53 AUDIO
    TITLE "9:cjc040_5190"
    INDEX 01 01:05:21
  TRACK 54 AUDIO
    TITLE "0:"
    INDEX 01 01:06:49
  TRACK 55 AUDIO
    TITLE "7:cjc040_5191"
    INDEX 01 01:08:27
  TRACK 56 AUDIO
    TITLE "0:"
    INDEX 01 01:09:48
  TRACK 57 AUDIO
    TITLE "8:cjc040_5192"
    INDEX 01 01:10:31
  TRACK 58 AUDIO
    TITLE "0:"
    INDEX 01 01:13:26
  TRACK 59 AUDIO
    TITLE "9:cjc040_5193"
    INDEX 01 01:14:08
  TRACK 60 AUDIO
    TITLE "0:"
    INDEX 01 01:15:27
  TRACK 61 AUDIO
    TITLE "7:cjc040_5194"
    INDEX 01 01:17:12
  TRACK 62 AUDIO
    TITLE "0:"
    INDEX 01 01:18:35
  TRACK 63 AUDIO
    TITLE "8:cjc040_5195"
    INDEX 01 01:19:15
  TRACK 64 AUDIO
    TITLE "0:"
    INDEX 01 01:20:42
  TRACK 65 AUDIO
    TITLE "9:cjc040_5196"
    INDEX 01 01:21:20
  TRACK 66 AUDIO
    TITLE "0:"
    INDEX 01 01:22:46
  TRACK 67 AUDIO
    TITLE "7:cjc040_5197"
    INDEX 01 01:24:22
  TRACK 68 AUDIO
    TITLE "0:"
    INDEX 01 01:25:45
  TRACK 69 AUDIO
    TITLE "8:cjc040_5198"
    INDEX 01 01:26:27
  TRACK 70 AUDIO
    TITLE "0:"
    INDEX 01 01:28:02
  TRACK 71 AUDIO
    TITLE "9:cjc040_5199"
    INDEX 01 01:28:53
  TRACK 72 AUDIO
    TITLE "0:"
    INDEX 01 01:30:03
  TRACK 73 AUDIO
    TITLE "7:cjc040_5200"
    INDEX 01 01:31:61
  TRACK 74 AUDIO
    TITLE "0:"
    INDEX 01 01:33:03
  TRACK 75 AUDIO
    TITLE "8:cjc040_5201"
    INDEX 01 01:33:62
  TRACK 76 AUDIO
    TITLE "0:"
    INDEX 01 01:35:04
  TRACK 77 AUDIO
    TITLE "9:cjc040_5202"
    INDEX 01 01:35:59
  TRACK 78 AUDIO
    TITLE "0:"
    INDEX 01 01:37:07
  TRACK 79 AUDIO
    TITLE "7:cjc040_5203"
    INDEX 01 01:38:63
  TRACK 80 AUDIO
    TITLE "0:"
    INDEX 01 01:39:64
  TRACK 81 AUDIO
    TITLE "8:cjc040_5204"
    INDEX 01 01:40:46
  TRACK 82 AUDIO
    TITLE "0:"
    INDEX 01 01:42:55
  TRACK 83 AUDIO
    TITLE "9:cjc040_5205"
    INDEX 01 01:43:33
  TRACK 84 AUDIO
    TITLE "0:"
    INDEX 01 01:44:40
  TRACK 85 AUDIO
    TITLE "7:cjc040_5206"
    INDEX 01 01:46:27
  TRACK 86 AUDIO
    TITLE "0:"
    INDEX 01 01:47:56
  TRACK 87 AUDIO
    TITLE "8:cjc040_5207"
    INDEX 01 01:48:34
  TRACK 88 AUDIO
    TITLE "0:"
    INDEX 01 01:50:31
  TRACK 89 AUDIO
    TITLE "9:cjc040_5208"
    INDEX 01 01:51:17
  TRACK 90 AUDIO
    TITLE "0:"
    INDEX 01 01:52:48
  TRACK 91 AUDIO
    TITLE "7:cjc040_5209"
    INDEX 01 01:54:31
  TRACK 92 AUDIO
    TITLE "0:"
    INDEX 01 01:55:32
  TRACK 93 AUDIO
    TITLE "8:cjc040_5210"
    INDEX 01 01:56:12
  TRACK 94 AUDIO
    TITLE "0:"
    INDEX 01 01:59:24
  TRACK 95 AUDIO
    TITLE "9:cjc040_5211"
    INDEX 01 01:59:73
  TRACK 96 AUDIO
    TITLE "0:"
    INDEX 01 02:01:03
  TRACK 97 AUDIO
    TITLE "7:cjc040_5212"
    INDEX 01 02:02:62
  TRACK 98 AUDIO
    TITLE "0:"
    INDEX 01 02:04:02
  TRACK 99 AUDIO
    TITLE "8:cjc040_5213"
    INDEX 01 02:04:55
  TRACK 100 AUDIO
    TITLE "0:"
    INDEX 01 02:06:30
  TRACK 101 AUDIO
    TITLE "9:cjc040_5214"
    INDEX 01 02:07:06
  TRACK 102 AUDIO
    TITLE "0:"
    INDEX 01 02:08:27
  TRACK 103 AUDIO
    TITLE "7:cjc040_5215"
    INDEX 01 02:10:08
  TRACK 104 AUDIO
    TITLE "0:"
    INDEX 01 02:11:29
  TRACK 105 AUDIO
    TITLE "8:cjc040_5216"
    INDEX 01 02:12:09
  TRACK 106 AUDIO
    TITLE "0:"
    INDEX 01 02:15:17
  TRACK 107 AUDIO
    TITLE "9:cjc040_5217"
    INDEX 01 02:15:72
  TRACK 108 AUDIO
    TITLE "0:"
    INDEX 01 02:17:22
